<?xml version="1.0" encoding="utf-8"?>
<!-- Generator: Adobe Illustrator 26.5.0, SVG Export Plug-In . SVG Version: 6.00 Build 0)  -->
<svg version="1.1" id="Layer_1" xmlns="http://www.w3.org/2000/svg" xmlns:xlink="http://www.w3.org/1999/xlink" x="0px" y="0px"
	 viewBox="0 0 542.5 178" style="enable-background:new 0 0 542.5 178;" xml:space="preserve">
<style type="text/css">
	.st0{fill:#F58020;}
	.st1{fill:#11497F;}
	.st2{fill:#FFFFFF;}
</style>
<g>
	<g>
		<path class="st0" d="M69.8,74.2c9.8,0,17.7-7.9,17.7-17.7s-7.9-17.7-17.7-17.7c-9.8,0-17.7,7.9-17.7,17.7S60.1,74.2,69.8,74.2z"/>
		<path class="st0" d="M119.4,82.6c0.1,0.1,0.2,0.2,0.2,0.3c0.3,0.4,0.7,0.9,1.1,1.3c0.1,0.1,0.2,0.2,0.3,0.3
			c0.2,0.2,0.4,0.4,0.6,0.6c0.1,0.1,0.3,0.3,0.4,0.4c0.3,0.3,0.7,0.6,1,0.8c0.2,0.2,0.4,0.3,0.6,0.4c0.2,0.1,0.4,0.3,0.6,0.4
			c0.4,0.2,0.7,0.5,1.1,0.7c0.2,0.1,0.3,0.2,0.5,0.3c0.3,0.2,0.6,0.3,1,0.5c0.2,0.1,0.3,0.1,0.5,0.2c0.4,0.2,0.9,0.4,1.4,0.5
			c0.1,0,0.3,0.1,0.4,0.1c0.4,0.1,0.9,0.2,1.3,0.3c0.1,0,0.2,0,0.3,0.1c0.5,0.1,1,0.2,1.6,0.2c0.1,0,0.3,0,0.4,0
			c0.6,0.1,1.1,0.1,1.7,0.1c10.2,0,18.5-8.3,18.5-18.5c0-10.2-8.3-18.4-18.5-18.4c-0.6,0-1.1,0-1.7,0.1c-0.5,0.1-1.1,0.1-1.6,0.2
			c-8.6,1.6-15.1,9.1-15.1,18.1c0,3.7,1.1,7.1,2.9,10C119,82,119.2,82.3,119.4,82.6z"/>
		<path class="st0" d="M63.1,131.9c-1.6,8.4-3.5,16.8-5.7,25.1c3.2,2.1,6.5,4,9.9,5.7c2.1-5.2,4.3-10.3,6.4-15.5
			C69.1,143.1,65.5,137.8,63.1,131.9z"/>
		<path class="st0" d="M167.3,95.8c-0.8-0.9-2.1-1-3.3-1c-7.6-0.2-15.3-0.4-22.9-0.7c-4.7,1.4-10.1,0-14.7-1.4
			c-0.6-0.2-1.2-0.4-1.7-0.6c-0.2-0.1-0.4-0.2-0.5-0.2c-0.4-0.2-0.8-0.4-1.2-0.6c-0.2-0.1-0.4-0.2-0.6-0.3c-0.5-0.3-1-0.6-1.5-0.9
			c-0.2-0.1-0.4-0.3-0.6-0.4c-0.3-0.2-0.6-0.4-0.8-0.6c-0.3-0.2-0.5-0.4-0.8-0.6c-0.2-0.2-0.4-0.3-0.6-0.5c-1.8-1.5-3.4-3.2-4.7-5.2
			c-10.5,0.4-21.1-3.6-28.7-10.8c-5.8,4.2-13,6.6-20.1,6.4c-4.6,8.9-10.6,17-17.8,24c-0.9,0.9-1.9,1.8-2.4,2.9
			c-0.4,0.7-0.5,1.6-0.3,2.5c0.1,0.4,0.3,0.8,0.6,1.1c1.1,1.2,3,1,4.6,0.7c6.6-1.5,12.9-4.2,18.4-8.1c-0.2,2.4-0.5,4.9-0.8,7.3
			c1.5,0.2,2.9,1,3.5,2.4l0.9,0v0.3c0,15.7,12.7,28.5,28.5,28.5c0.1,0,0.1,0,0.2,0c2.5,0,5-0.4,7.3-1c0.1,0,0.1,0,0.2-0.1
			c0.5-0.1,1.1-0.3,1.6-0.5c0.2-0.1,0.3-0.1,0.5-0.2c0.4-0.1,0.8-0.3,1.2-0.5c0.4-0.2,0.7-0.3,1.1-0.5c0.2-0.1,0.4-0.2,0.5-0.2
			c0.5-0.3,1.1-0.6,1.6-0.9l0.2,0.4c7.3-3.5,14.1-8,20.2-13.3c1.3-1.2,2.7-2.4,4.3-3.1c-0.3-1.9-0.7-3.9-0.9-5.9
			c10.4-1.6,20.2-6.1,28.1-13.1c0.8-0.7,1.6-1.5,2-2.4c0.1-0.2,0.2-0.4,0.2-0.7C168,97.3,167.8,96.4,167.3,95.8z M121,114.6
			c0,0.1,0,0.2,0,0.4c0,0.2,0,0.5-0.1,0.7c0,0.1,0,0.3-0.1,0.4c0,0.2,0,0.4-0.1,0.6c0,0.2-0.1,0.3-0.1,0.5c0,0.2-0.1,0.4-0.1,0.5
			c0,0.2-0.1,0.3-0.1,0.5c0,0.2-0.1,0.3-0.1,0.5c0,0.2-0.1,0.3-0.1,0.5c0,0.2-0.1,0.3-0.1,0.5c-0.1,0.2-0.1,0.4-0.2,0.5
			c0,0.1-0.1,0.3-0.1,0.4c-0.1,0.2-0.1,0.4-0.2,0.6c0,0.1-0.1,0.2-0.1,0.3c-0.1,0.2-0.2,0.4-0.3,0.6c0,0.1-0.1,0.1-0.1,0.2
			c-0.1,0.2-0.2,0.5-0.3,0.7c0,0,0,0,0,0c-3.5,7.1-10.8,12-19.3,12c-11.9,0-21.5-9.6-21.5-21.5C78,101.7,87.6,92,99.5,92
			c6.8,0,12.9,3.2,16.8,8.1c0,0,0,0,0,0c0.3,0.3,0.5,0.7,0.8,1.1c0,0,0,0,0,0.1c0.5,0.7,1,1.5,1.4,2.3c0,0.1,0.1,0.1,0.1,0.2
			c0.2,0.4,0.4,0.7,0.5,1.1c0,0,0,0.1,0.1,0.1c0.2,0.4,0.3,0.8,0.5,1.2c0,0.1,0,0.1,0.1,0.2c0.1,0.4,0.2,0.7,0.3,1.1
			c0,0.1,0.1,0.2,0.1,0.3c0.1,0.4,0.2,0.8,0.3,1.1c0,0.1,0,0.1,0,0.2c0.1,0.4,0.2,0.9,0.2,1.3c0,0.1,0,0.2,0,0.3
			c0,0.3,0.1,0.7,0.1,1c0,0.1,0,0.3,0,0.4c0,0.4,0,0.9,0,1.4C121.1,113.9,121.1,114.3,121,114.6z"/>
		<path class="st0" d="M122.9,152.5c1.8,4.9,3.6,9.7,5.5,14.6c7.2-2.3,13.9-5.6,20.1-9.7c-2.8-7.5-5.1-15.2-7-23
			C136.7,141.8,130.3,148,122.9,152.5z"/>
	</g>
	<path class="st1" d="M103.2,7c-45.3,0-82,36.7-82,82c0,28.4,14.4,53.4,36.3,68.1c2.2-8.3,4.1-16.7,5.7-25.1
		c-1.6-4-2.6-8.3-2.9-12.6c-0.1-1.7-0.1-3.5,0.3-5.1c0.1-0.3,0.2-0.7,0.3-1c0.7-2,2.2-3.7,4.2-4.3c0.6-0.2,1.2-0.2,1.8-0.1
		c0.3-2.4,0.6-4.9,0.8-7.3c-5.5,3.9-11.8,6.7-18.4,8.1c-1.6,0.3-3.5,0.5-4.6-0.7c-0.3-0.3-0.5-0.7-0.6-1.1c-0.2-0.8-0.1-1.7,0.3-2.5
		c0.5-1.2,1.5-2,2.4-2.9c7.2-6.9,13.2-15.1,17.8-24c7.1,0.2,14.4-2.1,20.1-6.4c7.6,7.3,18.2,11.3,28.7,10.8c1.3,1.9,2.9,3.7,4.7,5.2
		c0.2,0.2,0.4,0.3,0.6,0.5c0.3,0.2,0.5,0.4,0.8,0.6c0.3,0.2,0.6,0.4,0.8,0.6c0.2,0.1,0.4,0.3,0.6,0.4c0.5,0.3,1,0.6,1.5,0.9
		c0.2,0.1,0.4,0.2,0.6,0.3c0.4,0.2,0.8,0.4,1.2,0.6c0.2,0.1,0.4,0.2,0.5,0.2c0.6,0.2,1.2,0.5,1.7,0.6c4.6,1.5,10.1,2.8,14.7,1.4
		c7.6,0.2,15.3,0.4,22.9,0.7c1.2,0,2.5,0.1,3.3,1c0.5,0.6,0.6,1.5,0.5,2.3c0,0.2-0.1,0.5-0.2,0.7c-0.5,1-1.2,1.7-2,2.4
		c-7.8,6.9-17.7,11.5-28.1,13.1c0.3,2,0.6,3.9,0.9,5.9c0.2-0.1,0.3-0.2,0.5-0.2c1.8-0.7,4-0.7,5.5,0.6c2.4,2.1,1.4,6,0,8.8
		c-0.9,1.8-1.9,3.5-2.9,5.1c1.9,7.8,4.2,15.5,7,23c22.2-14.7,36.8-39.8,36.8-68.4C185.2,43.7,148.5,7,103.2,7z M69.8,74.2
		c-9.8,0-17.7-7.9-17.7-17.7s7.9-17.7,17.7-17.7c9.8,0,17.7,7.9,17.7,17.7S79.6,74.2,69.8,74.2z M134.3,90.2c-0.6,0-1.1,0-1.7-0.1
		c-0.1,0-0.3,0-0.4,0c-0.5-0.1-1.1-0.1-1.6-0.2c-0.1,0-0.2,0-0.3-0.1c-0.4-0.1-0.9-0.2-1.3-0.3c-0.1,0-0.3-0.1-0.4-0.1
		c-0.5-0.1-0.9-0.3-1.4-0.5c-0.2-0.1-0.3-0.1-0.5-0.2c-0.3-0.1-0.6-0.3-1-0.5c-0.2-0.1-0.3-0.2-0.5-0.3c-0.4-0.2-0.7-0.4-1.1-0.7
		c-0.2-0.1-0.4-0.3-0.6-0.4c-0.2-0.1-0.4-0.3-0.6-0.4c-0.3-0.3-0.7-0.5-1-0.8c-0.1-0.1-0.3-0.3-0.4-0.4c-0.2-0.2-0.4-0.4-0.6-0.6
		c-0.1-0.1-0.2-0.2-0.3-0.3c-0.4-0.4-0.7-0.8-1.1-1.3c-0.1-0.1-0.2-0.2-0.2-0.3c-0.2-0.3-0.4-0.5-0.6-0.8c-1.9-2.9-2.9-6.3-2.9-10
		c0-9.1,6.5-16.6,15.1-18.1c0.5-0.1,1.1-0.2,1.6-0.2c0.6-0.1,1.1-0.1,1.7-0.1c10.2,0,18.5,8.3,18.5,18.4
		C152.8,82,144.5,90.2,134.3,90.2z"/>
	<g>
		<path class="st2" d="M99.5,135.1c5.6,0,10.8-2.2,14.6-5.7c0,0,0,0,0.1,0c0.3-0.3,0.5-0.5,0.8-0.8c0.1-0.1,0.1-0.1,0.2-0.2
			c0.2-0.2,0.4-0.5,0.7-0.7c0.1-0.1,0.2-0.2,0.3-0.3c0.2-0.2,0.4-0.5,0.6-0.7c0.1-0.1,0.2-0.3,0.3-0.4c0.2-0.2,0.3-0.4,0.5-0.7
			c0.1-0.2,0.3-0.4,0.4-0.6c0.1-0.2,0.2-0.4,0.3-0.6c0.2-0.4,0.5-0.8,0.7-1.2c0,0,0,0,0,0c0.1-0.2,0.2-0.5,0.3-0.7
			c0-0.1,0.1-0.1,0.1-0.2c0.1-0.2,0.2-0.4,0.3-0.6c0-0.1,0.1-0.2,0.1-0.3c0.1-0.2,0.1-0.4,0.2-0.6c0-0.1,0.1-0.3,0.1-0.4
			c0.1-0.2,0.1-0.4,0.2-0.5c0-0.2,0.1-0.3,0.1-0.5c0-0.2,0.1-0.3,0.1-0.5c0-0.2,0.1-0.3,0.1-0.5c0-0.2,0.1-0.3,0.1-0.5
			c0-0.2,0.1-0.4,0.1-0.5c0-0.2,0.1-0.3,0.1-0.5c0-0.2,0.1-0.4,0.1-0.6c0-0.1,0-0.3,0.1-0.4c0-0.2,0-0.5,0.1-0.7c0-0.1,0-0.2,0-0.4
			c0-0.4,0-0.7,0-1.1c0-0.5,0-0.9,0-1.4c0-0.1,0-0.3,0-0.4c0-0.3-0.1-0.7-0.1-1c0-0.1,0-0.2,0-0.3c-0.1-0.4-0.1-0.9-0.2-1.3
			c0-0.1,0-0.1,0-0.2c-0.1-0.4-0.2-0.8-0.3-1.1c0-0.1-0.1-0.2-0.1-0.3c-0.1-0.4-0.2-0.7-0.3-1.1c0-0.1,0-0.1-0.1-0.2
			c-0.2-0.4-0.3-0.8-0.5-1.2c0,0,0-0.1-0.1-0.1c-0.2-0.4-0.3-0.7-0.5-1.1c0-0.1-0.1-0.1-0.1-0.2c-0.4-0.8-0.9-1.6-1.4-2.3
			c0,0,0,0,0-0.1c-0.3-0.4-0.5-0.7-0.8-1.1c0,0,0,0,0,0c-0.2-0.3-0.5-0.6-0.7-0.8c-0.1-0.1-0.2-0.2-0.3-0.4
			c-0.1-0.2-0.3-0.3-0.4-0.5c-0.1-0.1-0.3-0.3-0.4-0.4c-0.1-0.1-0.3-0.2-0.4-0.4c-0.2-0.1-0.3-0.3-0.5-0.4c-0.1-0.1-0.2-0.2-0.4-0.3
			c-0.2-0.1-0.3-0.3-0.5-0.4c-0.1-0.1-0.2-0.2-0.3-0.3c-0.2-0.1-0.4-0.3-0.6-0.4c-0.1-0.1-0.2-0.1-0.3-0.2c-0.2-0.1-0.4-0.3-0.7-0.4
			c-0.1,0-0.1-0.1-0.2-0.1c-3.3-2-7.1-3.1-11.2-3.1C87.6,92,78,101.7,78,113.6C78,125.5,87.6,135.1,99.5,135.1z"/>
		<path class="st2" d="M144.4,120.5c-1.4-1.3-3.7-1.3-5.5-0.6c-0.2,0.1-0.3,0.1-0.5,0.2c-1.6,0.8-2.9,2-4.3,3.1
			c-6.1,5.3-12.9,9.8-20.2,13.3l-0.2-0.4c-0.5,0.3-1,0.6-1.6,0.9c-0.2,0.1-0.4,0.2-0.5,0.2c-0.4,0.2-0.7,0.3-1.1,0.5
			c-0.4,0.2-0.8,0.3-1.2,0.5c-0.2,0.1-0.3,0.1-0.5,0.2c-0.5,0.2-1,0.3-1.6,0.5c-0.1,0-0.1,0-0.2,0.1c-2.3,0.6-4.8,1-7.3,1
			c-0.1,0-0.1,0-0.2,0c-15.7,0-28.5-12.7-28.5-28.5v-0.3l-0.9,0c-0.6-1.4-2-2.2-3.5-2.4c-0.6-0.1-1.2,0-1.8,0.1
			c-2,0.6-3.5,2.4-4.2,4.3c-0.1,0.3-0.2,0.7-0.3,1c-0.4,1.7-0.4,3.4-0.3,5.1c0.3,4.3,1.3,8.6,2.9,12.6c2.4,5.8,6,11.2,10.7,15.4
			c-2.1,5.2-4.3,10.3-6.4,15.5c3.1,1.5,6.3,2.8,9.6,3.9c1.1,0.4,2.2,0.7,3.3,1c7.3,2.1,15,3.3,23,3.3s15.7-1.1,23-3.3
			c0.7-0.2,1.5-0.4,2.2-0.7c-1.8-4.9-3.6-9.7-5.5-14.6c7.4-4.5,13.8-10.7,18.5-18c1.1-1.7,2-3.4,2.9-5.1
			C145.7,126.5,146.7,122.6,144.4,120.5z"/>
	</g>
</g>
<g>
	<g>
		<g>
			<polygon class="st1" points="379,16.8 379,16.8 379,16.8 			"/>
			<polygon class="st1" points="379,16.8 379,16.8 379,16.8 			"/>
			<path class="st1" d="M379.3,16.6h-0.6c0.1,0.1,0.2,0.1,0.3,0.2v0c0,0,0,0,0,0c0,0,0,0,0,0c0,0,0,0,0,0c0,0,0,0,0,0v0
				C379.1,16.7,379.2,16.7,379.3,16.6z"/>
		</g>
		<g>
			<path class="st1" d="M305.5,54h-10v45.4h-16.4V54H242V36h63.5V54z"/>
			<path class="st1" d="M331.8,43.4c2.6-2.7,5.7-4.9,9.3-6.5c3.6-1.6,7.7-2.4,12.1-2.4c4.3,0,8.1,0.6,11.3,1.7c3.3,1.2,6,3,8.3,5.4
				c2.3,2.5,4,5.7,5.2,9.4c1.2,3.8,1.7,8.2,1.7,13.3v35.1H343v-18h20.3V64.6c0-2.1-0.2-3.9-0.7-5.5c-0.5-1.5-1.2-2.8-2.2-3.8
				c-0.9-1-2.1-1.7-3.5-2.2c-1.4-0.5-3-0.7-4.7-0.7c-2.2,0-4.2,0.4-5.9,1.3c-1.7,0.9-3.1,1.9-4.3,3.3c-1.2,1.4-2.2,2.9-2.9,4.6
				c-0.7,1.7-1.2,3.2-1.6,4.6l-8.4,33.2h-16.8L322,62c0.1-0.2,0.1-0.5,0.2-0.8c0.1-0.3,0.1-0.5,0.2-0.8L311,36h17.4L331.8,43.4z"/>
			<path class="st1" d="M423.3,36c4.8,0,9,0.6,12.4,1.7c3.4,1.1,6.1,2.7,8.2,4.7c2,1.9,3.5,4.1,4.4,6.6c0.9,2.5,1.4,5.1,1.4,7.7
				c0,5.3-1.1,10-3.3,14.3c-2.2,4.2-5.2,8.1-8.9,11.5c-3.8,3.5-8.3,6.7-13.4,9.8c-5.1,3-10.7,6-16.6,8.8V82.4
				c3.2-1.5,6.4-3.1,9.5-4.9c3.1-1.8,5.9-3.7,8.3-5.8c2.6-2.2,4.6-4.3,5.9-6.3c1.3-2,2-4,2-6c0-0.9-0.2-1.7-0.5-2.4
				c-0.3-0.7-0.8-1.3-1.6-1.7c-0.9-0.5-1.8-0.9-2.9-1.1c-1.1-0.2-2.5-0.3-4.3-0.3H391V15.5h16.4V36H423.3z"/>
			<path class="st1" d="M490.2,36c4.8,0,9,0.6,12.4,1.7c3.4,1.1,6.1,2.7,8.2,4.7c2,1.9,3.5,4.1,4.4,6.6c0.9,2.5,1.4,5.1,1.4,7.7
				c0,5.3-1.1,10-3.3,14.3c-2.2,4.2-5.2,8.1-8.9,11.5c-3.8,3.5-8.3,6.7-13.4,9.8c-5.1,3-10.7,6-16.6,8.8V82.4
				c3.2-1.5,6.4-3.1,9.5-4.9c3.1-1.8,5.9-3.7,8.3-5.8c2.6-2.2,4.6-4.3,5.9-6.3c1.3-2,2-4,2-6c0-0.9-0.2-1.7-0.5-2.4
				c-0.3-0.7-0.8-1.3-1.6-1.7c-0.9-0.5-1.8-0.9-2.9-1.1c-1.1-0.2-2.5-0.3-4.3-0.3H458V15.5h16.4V36H490.2z"/>
		</g>
		<g>
			<path class="st1" d="M253.6,122.6c0,0.7-0.1,1.5-0.3,2.4h-6v4.4h7.8c0.2,0.9,0.3,1.7,0.3,2.4c0,0.8-0.1,1.6-0.3,2.4h-13.3V112
				h13.1c0.1,0.5,0.1,0.9,0.2,1.3c0,0.4,0.1,0.8,0.1,1.1c0,0.7-0.1,1.5-0.2,2.4h-7.6v3.4h6C253.5,121.1,253.6,121.9,253.6,122.6z"/>
			<path class="st1" d="M264.4,111.6c3.9,0,6.9,1,8.9,2.9c2,2,3,4.9,3,8.7c0,3.9-1,6.8-3.1,8.6c-2.1,1.8-5.1,2.7-9.2,2.7
				c-1,0-2,0-3-0.1c-1-0.1-1.9-0.2-2.8-0.3V112c0.3,0,0.7-0.1,1.2-0.1c0.5-0.1,1-0.1,1.5-0.1c0.6,0,1.1-0.1,1.7-0.1
				C263.2,111.6,263.8,111.6,264.4,111.6z M263.7,129.7c0.1,0,0.3,0,0.5,0s0.4,0,0.6,0c0.8,0,1.6-0.1,2.3-0.3c0.7-0.2,1.3-0.5,1.8-1
				c0.5-0.5,0.9-1.2,1.2-2c0.3-0.8,0.4-1.9,0.4-3.3c0-1.3-0.2-2.4-0.5-3.3c-0.3-0.9-0.7-1.6-1.2-2.1c-0.5-0.5-1.1-0.9-1.8-1.1
				c-0.7-0.2-1.4-0.3-2.1-0.3c-0.4,0-0.7,0-0.9,0c-0.2,0-0.3,0-0.4,0V129.7z"/>
			<path class="st1" d="M287.8,134.6c-1.7,0-3.1-0.2-4.2-0.7c-1.1-0.5-2-1.1-2.6-2c-0.6-0.9-1.1-1.9-1.3-3.1
				c-0.3-1.2-0.4-2.6-0.4-4.1V112c0.6-0.1,1.1-0.1,1.5-0.2c0.4,0,0.8,0,1.2,0c0.4,0,0.7,0,1.2,0c0.4,0,0.9,0.1,1.5,0.2v12
				c0,1,0,1.9,0.1,2.6c0.1,0.7,0.2,1.3,0.4,1.8c0.2,0.5,0.5,0.8,0.9,1c0.4,0.2,0.9,0.3,1.5,0.3c0.6,0,1.2-0.1,1.6-0.3
				c0.4-0.2,0.7-0.5,0.9-1c0.2-0.5,0.4-1,0.4-1.8c0.1-0.7,0.1-1.6,0.1-2.6v-12c0.6-0.1,1.1-0.1,1.6-0.2c0.4,0,0.8,0,1.2,0
				c0.4,0,0.8,0,1.2,0c0.4,0,0.9,0.1,1.5,0.2v12.7c0,1.5-0.1,2.9-0.4,4.1c-0.3,1.2-0.7,2.3-1.3,3.1c-0.6,0.9-1.5,1.5-2.6,2
				C290.9,134.3,289.5,134.6,287.8,134.6z"/>
			<path class="st1" d="M305.1,123.1c0,4.4,1.8,6.6,5.5,6.6c0.7,0,1.3-0.1,1.9-0.2c0.6-0.1,1.3-0.3,2.2-0.6c0.7,1.5,1.1,3,1.4,4.6
				c-0.6,0.2-1.2,0.4-1.7,0.6c-0.5,0.1-1,0.3-1.5,0.3c-0.5,0.1-0.9,0.1-1.4,0.2c-0.5,0-0.9,0-1.4,0c-1.8,0-3.3-0.3-4.6-0.9
				c-1.3-0.6-2.4-1.4-3.3-2.4c-0.9-1-1.6-2.2-2-3.6c-0.5-1.4-0.7-2.9-0.7-4.6s0.2-3.2,0.7-4.6c0.5-1.4,1.2-2.6,2.1-3.7
				c0.9-1,2-1.8,3.3-2.4c1.3-0.6,2.8-0.9,4.5-0.9c1,0,1.9,0.1,2.8,0.2c0.9,0.1,1.9,0.4,3,0.9c0,0.8-0.2,1.7-0.5,2.5
				c-0.3,0.8-0.5,1.5-0.8,2.1c-0.4-0.1-0.8-0.3-1.1-0.4c-0.3-0.1-0.7-0.2-1-0.2c-0.3-0.1-0.6-0.1-0.9-0.1c-0.3,0-0.6,0-1,0
				c-1.7,0-3,0.6-3.9,1.7C305.6,119.2,305.1,120.9,305.1,123.1z"/>
			<path class="st1" d="M322.4,134.2c-0.5,0.1-0.9,0.1-1.3,0.2c-0.4,0-0.8,0.1-1.1,0.1s-0.8,0-1.3-0.1c-0.5-0.1-1-0.1-1.6-0.2
				L324,112c0.5-0.1,1-0.1,1.5-0.2c0.5,0,0.9-0.1,1.4-0.1c0.4,0,0.8,0,1.3,0.1c0.5,0,1,0.1,1.6,0.2l6.8,22.1
				c-1.2,0.2-2.2,0.3-3.1,0.3c-0.4,0-0.8,0-1.2-0.1c-0.4,0-0.9-0.1-1.3-0.2l-1.2-4.3c-0.6,0.2-1.1,0.3-1.7,0.4
				c-0.5,0.1-1,0.1-1.6,0.1c-0.5,0-1,0-1.5-0.1c-0.5-0.1-1-0.2-1.5-0.3L322.4,134.2z M326.7,117.8l-2.1,8c0.4,0.1,0.7,0.2,1,0.2
				c0.3,0.1,0.6,0.1,1,0.1c0.4,0,0.7,0,1-0.1c0.3-0.1,0.7-0.1,1.1-0.2L326.7,117.8z"/>
			<path class="st1" d="M339.9,116.8h-5.2c-0.2-0.9-0.3-1.7-0.3-2.4c0-0.7,0.1-1.5,0.3-2.4h15.8c0.1,0.5,0.1,0.9,0.2,1.3
				c0,0.4,0.1,0.8,0.1,1.1c0,0.7-0.1,1.5-0.2,2.4h-5.2v17.3c-1.1,0.2-2,0.3-2.7,0.3c-0.8,0-1.7-0.1-2.8-0.3V116.8z"/>
			<path class="st1" d="M355.9,134.4c-0.8,0-1.7-0.1-2.8-0.3V112c0.6-0.1,1.1-0.1,1.5-0.2c0.5,0,0.9-0.1,1.2-0.1
				c0.4,0,0.8,0,1.3,0.1c0.5,0,1,0.1,1.5,0.2v22.1C357.5,134.3,356.6,134.4,355.9,134.4z"/>
			<path class="st1" d="M361.7,123.2c0-1.7,0.2-3.2,0.6-4.6c0.4-1.4,1-2.6,1.8-3.7c0.8-1,1.8-1.8,3-2.4c1.2-0.6,2.7-0.9,4.4-0.9
				c1.7,0,3.1,0.3,4.4,0.9c1.2,0.6,2.2,1.4,3,2.4c0.8,1,1.4,2.3,1.8,3.7c0.4,1.4,0.6,2.9,0.6,4.6c0,1.7-0.2,3.2-0.6,4.6
				c-0.4,1.4-1,2.6-1.8,3.6c-0.8,1-1.8,1.8-3,2.4c-1.2,0.6-2.7,0.9-4.4,0.9c-1.7,0-3.2-0.3-4.4-0.9c-1.2-0.6-2.2-1.4-3-2.4
				c-0.8-1-1.4-2.2-1.8-3.6C361.9,126.4,361.7,124.8,361.7,123.2z M375.4,123.2c0-4.5-1.3-6.7-3.9-6.7c-2.7,0-4,2.3-4,6.7
				c0,2.3,0.3,3.9,1,5c0.7,1.1,1.7,1.7,3,1.7C374.1,129.9,375.4,127.6,375.4,123.2z"/>
			<path class="st1" d="M384.3,112c0.5-0.1,0.9-0.1,1.2-0.2c0.4,0,0.7-0.1,1.1-0.1c0.4,0,0.8,0,1.2,0.1c0.4,0.1,0.7,0.1,1,0.2
				l7.2,12.1V112c0.5-0.1,1-0.1,1.5-0.2s0.8-0.1,1.2-0.1c0.4,0,0.7,0,1.1,0.1c0.4,0,0.8,0.1,1.2,0.2l0,22.1
				c-0.2,0.1-0.5,0.1-0.9,0.2c-0.4,0.1-0.8,0.1-1.3,0.1c-0.5,0-1,0-1.4-0.1c-0.4-0.1-0.7-0.1-0.9-0.2l-7.2-12.1v12.1
				c-0.9,0.2-1.7,0.3-2.5,0.3c-0.7,0-1.6-0.1-2.5-0.3V112z"/>
			<path class="st1" d="M416.7,123.1c0,4.4,1.8,6.6,5.5,6.6c0.7,0,1.3-0.1,1.9-0.2c0.6-0.1,1.3-0.3,2.2-0.6c0.7,1.5,1.1,3,1.4,4.6
				c-0.6,0.2-1.2,0.4-1.7,0.6c-0.5,0.1-1,0.3-1.5,0.3c-0.5,0.1-0.9,0.1-1.4,0.2c-0.5,0-0.9,0-1.4,0c-1.8,0-3.3-0.3-4.6-0.9
				c-1.3-0.6-2.4-1.4-3.3-2.4c-0.9-1-1.6-2.2-2-3.6c-0.5-1.4-0.7-2.9-0.7-4.6s0.2-3.2,0.7-4.6c0.5-1.4,1.2-2.6,2.1-3.7
				c0.9-1,2-1.8,3.3-2.4c1.3-0.6,2.8-0.9,4.5-0.9c1,0,1.9,0.1,2.8,0.2c0.9,0.1,1.9,0.4,3,0.9c0,0.8-0.2,1.7-0.5,2.5
				c-0.3,0.8-0.5,1.5-0.8,2.1c-0.4-0.1-0.8-0.3-1.1-0.4c-0.3-0.1-0.7-0.2-1-0.2c-0.3-0.1-0.6-0.1-0.9-0.1c-0.3,0-0.6,0-1,0
				c-1.7,0-3,0.6-3.9,1.7C417.2,119.2,416.7,120.9,416.7,123.1z"/>
			<path class="st1" d="M442.1,122.6c0,0.7-0.1,1.5-0.3,2.4h-6v4.4h7.8c0.2,0.9,0.3,1.7,0.3,2.4c0,0.8-0.1,1.6-0.3,2.4h-13.3V112
				h13.1c0.1,0.5,0.1,0.9,0.2,1.3c0,0.4,0.1,0.8,0.1,1.1c0,0.7-0.1,1.5-0.2,2.4h-7.6v3.4h6C442,121.1,442.1,121.9,442.1,122.6z"/>
			<path class="st1" d="M446.7,112c0.5-0.1,0.9-0.1,1.2-0.2c0.4,0,0.7-0.1,1.1-0.1c0.4,0,0.8,0,1.2,0.1c0.4,0.1,0.7,0.1,1,0.2
				l7.2,12.1V112c0.5-0.1,1-0.1,1.5-0.2c0.4,0,0.8-0.1,1.2-0.1c0.4,0,0.7,0,1.1,0.1c0.4,0,0.8,0.1,1.2,0.2l0,22.1
				c-0.2,0.1-0.5,0.1-0.9,0.2c-0.4,0.1-0.8,0.1-1.3,0.1c-0.5,0-1,0-1.4-0.1c-0.4-0.1-0.7-0.1-0.9-0.2l-7.2-12.1v12.1
				c-0.9,0.2-1.7,0.3-2.5,0.3c-0.7,0-1.6-0.1-2.5-0.3V112z"/>
			<path class="st1" d="M471.2,116.8H466c-0.2-0.9-0.3-1.7-0.3-2.4c0-0.7,0.1-1.5,0.3-2.4h15.8c0.1,0.5,0.1,0.9,0.2,1.3
				c0,0.4,0.1,0.8,0.1,1.1c0,0.7-0.1,1.5-0.2,2.4h-5.2v17.3c-1.1,0.2-2,0.3-2.7,0.3c-0.8,0-1.7-0.1-2.8-0.3V116.8z"/>
			<path class="st1" d="M496.1,122.6c0,0.7-0.1,1.5-0.3,2.4h-6v4.4h7.8c0.2,0.9,0.3,1.7,0.3,2.4c0,0.8-0.1,1.6-0.3,2.4h-13.3V112
				h13.1c0.1,0.5,0.1,0.9,0.2,1.3c0,0.4,0.1,0.8,0.1,1.1c0,0.7-0.1,1.5-0.2,2.4h-7.6v3.4h6C496,121.1,496.1,121.9,496.1,122.6z"/>
			<path class="st1" d="M500.7,112c1-0.1,1.9-0.2,2.8-0.3c0.9-0.1,1.8-0.1,2.7-0.1c1.1,0,2.3,0.1,3.4,0.3c1.1,0.2,2.1,0.6,3,1.1
				c0.9,0.5,1.6,1.3,2.2,2.2c0.6,0.9,0.8,2.1,0.8,3.5c0,0.8-0.1,1.5-0.3,2.1c-0.2,0.6-0.4,1.2-0.7,1.6c-0.3,0.5-0.6,0.9-0.9,1.2
				c-0.3,0.4-0.7,0.7-1,0.9l4.8,9.5c-0.5,0.1-1,0.1-1.6,0.2c-0.6,0-1.1,0.1-1.6,0.1c-0.4,0-0.9,0-1.4-0.1c-0.5,0-1-0.1-1.4-0.2
				l-4.4-10.1l0.3-0.2c0.2-0.1,0.5-0.3,0.8-0.6c0.3-0.3,0.6-0.6,0.8-1c0.3-0.4,0.5-0.9,0.7-1.3c0.2-0.5,0.3-1,0.3-1.5
				c0-1-0.3-1.8-0.9-2.3c-0.6-0.5-1.3-0.7-2.1-0.7c-0.2,0-0.4,0-0.5,0c-0.1,0-0.2,0-0.3,0.1v17.7c-1.1,0.2-2,0.3-2.7,0.3
				c-0.8,0-1.7-0.1-2.8-0.3V112z"/>
		</g>
	</g>
	<g>
		<path class="st1" d="M250.1,149.2h-5.1v2.3h4.7v2.3h-4.7v5.2h-3v-12.2h8.2V149.2z"/>
		<path class="st1" d="M260.3,154.5c0,1.5-0.4,2.7-1.2,3.6c-0.8,0.9-2,1.3-3.5,1.3c-1.5,0-2.7-0.4-3.5-1.3c-0.8-0.9-1.3-2.1-1.3-3.6
			c0-1.5,0.4-2.7,1.3-3.6c0.8-0.9,2-1.3,3.5-1.3c1.5,0,2.7,0.4,3.5,1.3C259.9,151.8,260.3,153,260.3,154.5z M257.4,154.5
			c0-0.5,0-1-0.1-1.4c-0.1-0.4-0.2-0.7-0.4-0.9c-0.2-0.2-0.4-0.4-0.6-0.5c-0.2-0.1-0.5-0.1-0.7-0.1c-0.3,0-0.5,0-0.7,0.1
			c-0.2,0.1-0.4,0.2-0.6,0.5c-0.2,0.2-0.3,0.5-0.4,0.9c-0.1,0.4-0.1,0.8-0.1,1.4c0,0.6,0,1,0.1,1.4c0.1,0.3,0.2,0.6,0.4,0.8
			c0.2,0.2,0.3,0.4,0.6,0.5c0.2,0.1,0.5,0.1,0.8,0.1c0.2,0,0.5,0,0.7-0.1c0.2-0.1,0.4-0.2,0.6-0.4c0.2-0.2,0.3-0.5,0.4-0.8
			C257.3,155.5,257.4,155.1,257.4,154.5z"/>
		<path class="st1" d="M266.3,159.3c-0.8,0-1.5-0.1-2.1-0.3c-0.6-0.2-1.2-0.5-1.6-0.9c-0.5-0.4-0.8-0.9-1.1-1.5
			c-0.3-0.6-0.4-1.3-0.4-2.1c0-0.9,0.1-1.6,0.4-2.2c0.3-0.6,0.7-1.1,1.1-1.5c0.5-0.4,1-0.7,1.6-0.8c0.6-0.2,1.3-0.3,1.9-0.3
			c0.5,0,1,0.1,1.5,0.2c0.5,0.1,1,0.3,1.5,0.6v2.5H269c-0.1-0.1-0.3-0.2-0.4-0.4c-0.2-0.1-0.3-0.3-0.5-0.4c-0.2-0.1-0.4-0.2-0.7-0.3
			c-0.3-0.1-0.6-0.1-0.9-0.1c-0.7,0-1.3,0.3-1.7,0.8c-0.4,0.5-0.6,1.2-0.6,2.1c0,0.9,0.2,1.6,0.6,2.1c0.4,0.5,1,0.7,1.7,0.7
			c0.4,0,0.7,0,1-0.1c0.3-0.1,0.5-0.2,0.7-0.3c0.2-0.1,0.4-0.2,0.5-0.4c0.1-0.1,0.3-0.2,0.4-0.3h0.4v2.5c-0.2,0.1-0.4,0.2-0.6,0.2
			c-0.2,0.1-0.4,0.2-0.7,0.2c-0.3,0.1-0.5,0.1-0.8,0.2C267.1,159.3,266.7,159.3,266.3,159.3z"/>
		<path class="st1" d="M279.2,159.1h-2.9v-1c-0.5,0.4-1,0.7-1.4,0.9c-0.4,0.2-0.9,0.3-1.5,0.3c-0.9,0-1.6-0.3-2.1-0.9
			c-0.5-0.6-0.8-1.4-0.8-2.6v-6h2.9v4.6c0,0.5,0,0.9,0,1.2c0,0.3,0.1,0.6,0.2,0.8c0.1,0.2,0.2,0.3,0.4,0.4c0.2,0.1,0.4,0.1,0.8,0.1
			c0.2,0,0.4,0,0.7-0.1c0.3-0.1,0.5-0.2,0.8-0.4v-6.5h2.9V159.1z"/>
		<path class="st1" d="M284.2,159.3c-0.7,0-1.3-0.1-1.9-0.2c-0.6-0.1-1.1-0.3-1.5-0.5v-2.4h0.2c0.1,0.1,0.3,0.2,0.5,0.3
			c0.2,0.1,0.4,0.3,0.7,0.4c0.3,0.1,0.6,0.2,0.9,0.3c0.3,0.1,0.7,0.1,1.1,0.1c0.4,0,0.8-0.1,1.1-0.2c0.3-0.1,0.5-0.3,0.5-0.6
			c0-0.2-0.1-0.4-0.2-0.5c-0.1-0.1-0.4-0.2-0.8-0.3c-0.2-0.1-0.5-0.1-0.8-0.2c-0.3-0.1-0.6-0.1-0.9-0.2c-0.7-0.2-1.3-0.6-1.6-1
			c-0.4-0.4-0.5-1-0.5-1.7c0-0.4,0.1-0.8,0.3-1.2c0.2-0.4,0.5-0.7,0.8-1c0.4-0.3,0.8-0.5,1.4-0.7c0.5-0.2,1.1-0.2,1.8-0.2
			c0.6,0,1.2,0.1,1.8,0.2c0.5,0.1,1,0.3,1.4,0.5v2.3h-0.2c-0.1-0.1-0.3-0.2-0.5-0.3c-0.2-0.1-0.4-0.2-0.6-0.3
			c-0.2-0.1-0.5-0.2-0.8-0.3c-0.3-0.1-0.6-0.1-0.9-0.1c-0.4,0-0.8,0.1-1.1,0.2c-0.3,0.1-0.4,0.3-0.4,0.6c0,0.2,0.1,0.4,0.2,0.5
			c0.1,0.1,0.5,0.2,0.9,0.4c0.2,0.1,0.5,0.1,0.8,0.2s0.6,0.1,0.9,0.2c0.7,0.2,1.2,0.5,1.5,0.9c0.3,0.4,0.5,1,0.5,1.6
			c0,0.4-0.1,0.8-0.3,1.2c-0.2,0.4-0.5,0.7-0.9,1c-0.4,0.3-0.9,0.5-1.4,0.7C285.6,159.3,285,159.3,284.2,159.3z"/>
		<path class="st1" d="M294.8,159.3c-1.7,0-3.1-0.4-4-1.2c-0.9-0.8-1.4-2-1.4-3.5c0-1.5,0.4-2.7,1.3-3.6c0.9-0.9,2.1-1.3,3.6-1.3
			c1.4,0,2.5,0.4,3.2,1.1c0.7,0.8,1.1,1.8,1.1,3.3v1h-6.3c0,0.4,0.1,0.8,0.3,1.1c0.2,0.3,0.4,0.5,0.6,0.7c0.2,0.2,0.5,0.3,0.9,0.4
			c0.3,0.1,0.7,0.1,1.1,0.1c0.3,0,0.7,0,1-0.1c0.3-0.1,0.6-0.2,0.9-0.3c0.2-0.1,0.5-0.2,0.7-0.3c0.2-0.1,0.4-0.2,0.5-0.3h0.3v2.4
			c-0.2,0.1-0.4,0.2-0.6,0.3c-0.2,0.1-0.5,0.2-0.8,0.2c-0.3,0.1-0.6,0.1-1,0.2C295.7,159.3,295.3,159.3,294.8,159.3z M295.7,153.3
			c0-0.6-0.2-1.1-0.4-1.4c-0.3-0.3-0.7-0.5-1.2-0.5c-0.6,0-1,0.2-1.3,0.5s-0.5,0.8-0.5,1.4H295.7z"/>
		<path class="st1" d="M308.4,159.1h-2.9v-1c-0.2,0.2-0.4,0.3-0.6,0.5c-0.2,0.2-0.4,0.3-0.6,0.4c-0.2,0.1-0.5,0.2-0.7,0.2
			c-0.2,0.1-0.5,0.1-0.8,0.1c-1,0-1.9-0.4-2.5-1.3c-0.6-0.9-0.9-2-0.9-3.5c0-0.8,0.1-1.5,0.3-2.1c0.2-0.6,0.5-1.1,0.9-1.5
			c0.3-0.4,0.7-0.7,1.2-0.9c0.5-0.2,1-0.3,1.5-0.3c0.5,0,0.9,0.1,1.2,0.2c0.3,0.1,0.7,0.3,1.1,0.5v-3.9h2.9V159.1z M305.5,156.5V152
			c-0.1-0.1-0.3-0.1-0.6-0.2c-0.2,0-0.4-0.1-0.6-0.1c-0.7,0-1.2,0.2-1.6,0.7c-0.3,0.5-0.5,1.2-0.5,2c0,0.9,0.1,1.6,0.4,2
			c0.3,0.4,0.7,0.6,1.3,0.6c0.3,0,0.5,0,0.8-0.1C305.1,156.8,305.3,156.7,305.5,156.5z"/>
		<path class="st1" d="M324.4,154.5c0,1.5-0.4,2.7-1.2,3.6c-0.8,0.9-2,1.3-3.5,1.3c-1.5,0-2.7-0.4-3.5-1.3c-0.8-0.9-1.3-2.1-1.3-3.6
			c0-1.5,0.4-2.7,1.3-3.6c0.8-0.9,2-1.3,3.5-1.3c1.5,0,2.7,0.4,3.5,1.3C323.9,151.8,324.4,153,324.4,154.5z M321.4,154.5
			c0-0.5,0-1-0.1-1.4c-0.1-0.4-0.2-0.7-0.4-0.9c-0.2-0.2-0.4-0.4-0.6-0.5c-0.2-0.1-0.5-0.1-0.7-0.1c-0.3,0-0.5,0-0.7,0.1
			c-0.2,0.1-0.4,0.2-0.6,0.5c-0.2,0.2-0.3,0.5-0.4,0.9c-0.1,0.4-0.1,0.8-0.1,1.4c0,0.6,0,1,0.1,1.4c0.1,0.3,0.2,0.6,0.4,0.8
			c0.2,0.2,0.3,0.4,0.6,0.5s0.5,0.1,0.8,0.1c0.2,0,0.5,0,0.7-0.1c0.2-0.1,0.4-0.2,0.6-0.4c0.2-0.2,0.3-0.5,0.4-0.8
			C321.4,155.5,321.4,155.1,321.4,154.5z"/>
		<path class="st1" d="M334.5,159.1h-2.9v-4.6c0-0.4,0-0.7,0-1.1c0-0.4-0.1-0.6-0.2-0.8c-0.1-0.2-0.2-0.4-0.4-0.4
			c-0.2-0.1-0.4-0.1-0.7-0.1c-0.2,0-0.5,0-0.7,0.1c-0.2,0.1-0.5,0.2-0.8,0.4v6.5h-2.9v-9.2h2.9v1c0.5-0.4,0.9-0.7,1.4-0.9
			c0.4-0.2,0.9-0.3,1.5-0.3c0.9,0,1.7,0.3,2.2,0.9c0.5,0.6,0.7,1.5,0.7,2.6V159.1z"/>
		<path class="st1" d="M350.1,149.9l-4.6,12.6h-3.1l1.4-3.6l-3.4-9h3l1.9,5.8l1.8-5.8H350.1z"/>
		<path class="st1" d="M360.1,154.5c0,1.5-0.4,2.7-1.2,3.6c-0.8,0.9-2,1.3-3.5,1.3c-1.5,0-2.7-0.4-3.5-1.3c-0.8-0.9-1.3-2.1-1.3-3.6
			c0-1.5,0.4-2.7,1.3-3.6c0.8-0.9,2-1.3,3.5-1.3c1.5,0,2.7,0.4,3.5,1.3C359.6,151.8,360.1,153,360.1,154.5z M357.1,154.5
			c0-0.5,0-1-0.1-1.4c-0.1-0.4-0.2-0.7-0.4-0.9c-0.2-0.2-0.4-0.4-0.6-0.5c-0.2-0.1-0.5-0.1-0.7-0.1c-0.3,0-0.5,0-0.7,0.1
			c-0.2,0.1-0.4,0.2-0.6,0.5c-0.2,0.2-0.3,0.5-0.4,0.9c-0.1,0.4-0.1,0.8-0.1,1.4c0,0.6,0,1,0.1,1.4c0.1,0.3,0.2,0.6,0.4,0.8
			c0.2,0.2,0.3,0.4,0.6,0.5c0.2,0.1,0.5,0.1,0.8,0.1c0.2,0,0.5,0,0.7-0.1c0.2-0.1,0.4-0.2,0.6-0.4c0.2-0.2,0.3-0.5,0.4-0.8
			C357.1,155.5,357.1,155.1,357.1,154.5z"/>
		<path class="st1" d="M370.1,159.1h-2.9v-1c-0.5,0.4-1,0.7-1.4,0.9c-0.4,0.2-0.9,0.3-1.5,0.3c-0.9,0-1.6-0.3-2.1-0.9
			c-0.5-0.6-0.8-1.4-0.8-2.6v-6h2.9v4.6c0,0.5,0,0.9,0,1.2c0,0.3,0.1,0.6,0.2,0.8c0.1,0.2,0.2,0.3,0.4,0.4s0.4,0.1,0.8,0.1
			c0.2,0,0.4,0,0.7-0.1c0.3-0.1,0.5-0.2,0.8-0.4v-6.5h2.9V159.1z"/>
		<path class="st1" d="M378.5,152.6h-0.2c-0.1,0-0.3-0.1-0.5-0.1c-0.2,0-0.4,0-0.7,0c-0.3,0-0.6,0-0.9,0.1c-0.3,0.1-0.7,0.2-1,0.3
			v6.2h-2.9v-9.2h2.9v1.3c0.1-0.1,0.3-0.3,0.5-0.5c0.2-0.2,0.4-0.3,0.6-0.4c0.2-0.1,0.4-0.2,0.7-0.3c0.3-0.1,0.5-0.1,0.8-0.1
			c0.1,0,0.2,0,0.3,0c0.1,0,0.2,0,0.3,0V152.6z"/>
		<path class="st1" d="M389,159.3c-0.8,0-1.5-0.1-2.1-0.3c-0.6-0.2-1.2-0.5-1.6-0.9c-0.5-0.4-0.8-0.9-1.1-1.5
			c-0.3-0.6-0.4-1.3-0.4-2.1c0-0.9,0.1-1.6,0.4-2.2c0.3-0.6,0.7-1.1,1.1-1.5c0.5-0.4,1-0.7,1.6-0.8c0.6-0.2,1.3-0.3,1.9-0.3
			c0.5,0,1,0.1,1.5,0.2c0.5,0.1,1,0.3,1.5,0.6v2.5h-0.4c-0.1-0.1-0.3-0.2-0.4-0.4c-0.2-0.1-0.3-0.3-0.5-0.4
			c-0.2-0.1-0.4-0.2-0.7-0.3c-0.3-0.1-0.6-0.1-0.9-0.1c-0.7,0-1.3,0.3-1.7,0.8c-0.4,0.5-0.6,1.2-0.6,2.1c0,0.9,0.2,1.6,0.6,2.1
			c0.4,0.5,1,0.7,1.7,0.7c0.4,0,0.7,0,1-0.1c0.3-0.1,0.5-0.2,0.7-0.3c0.2-0.1,0.4-0.2,0.5-0.4c0.1-0.1,0.3-0.2,0.4-0.3h0.4v2.5
			c-0.2,0.1-0.4,0.2-0.6,0.2c-0.2,0.1-0.4,0.2-0.7,0.2c-0.3,0.1-0.5,0.1-0.8,0.2C389.8,159.3,389.4,159.3,389,159.3z"/>
		<path class="st1" d="M402,159.1h-2.9v-4.6c0-0.4,0-0.7,0-1.1c0-0.4-0.1-0.6-0.2-0.8c-0.1-0.2-0.2-0.4-0.4-0.4
			c-0.2-0.1-0.4-0.1-0.7-0.1c-0.2,0-0.5,0-0.7,0.1c-0.2,0.1-0.5,0.2-0.8,0.4v6.5h-2.9v-12.8h2.9v4.6c0.5-0.4,0.9-0.7,1.4-0.9
			c0.4-0.2,0.9-0.3,1.5-0.3c0.9,0,1.7,0.3,2.2,0.9c0.5,0.6,0.7,1.5,0.7,2.6V159.1z"/>
		<path class="st1" d="M407.1,148.6h-3v-2.2h3V148.6z M407,159.1h-2.9v-9.2h2.9V159.1z"/>
		<path class="st1" d="M412.1,159.1h-2.9v-12.8h2.9V159.1z"/>
		<path class="st1" d="M422.6,159.1h-2.9v-1c-0.2,0.2-0.4,0.3-0.6,0.5c-0.2,0.2-0.4,0.3-0.6,0.4c-0.2,0.1-0.5,0.2-0.7,0.2
			c-0.2,0.1-0.5,0.1-0.8,0.1c-1,0-1.9-0.4-2.5-1.3c-0.6-0.9-0.9-2-0.9-3.5c0-0.8,0.1-1.5,0.3-2.1c0.2-0.6,0.5-1.1,0.9-1.5
			c0.3-0.4,0.7-0.7,1.2-0.9c0.5-0.2,1-0.3,1.5-0.3c0.5,0,0.9,0.1,1.2,0.2c0.3,0.1,0.7,0.3,1.1,0.5v-3.9h2.9V159.1z M419.8,156.5V152
			c-0.1-0.1-0.3-0.1-0.6-0.2c-0.2,0-0.4-0.1-0.6-0.1c-0.7,0-1.2,0.2-1.6,0.7c-0.3,0.5-0.5,1.2-0.5,2c0,0.9,0.1,1.6,0.4,2
			c0.3,0.4,0.7,0.6,1.3,0.6c0.3,0,0.5,0,0.8-0.1C419.3,156.8,419.5,156.7,419.8,156.5z"/>
		<path class="st1" d="M428.6,146.3l-2.2,4.8h-1.8l1.3-4.8H428.6z"/>
		<path class="st1" d="M432.3,159.3c-0.7,0-1.3-0.1-1.9-0.2c-0.6-0.1-1.1-0.3-1.5-0.5v-2.4h0.2c0.1,0.1,0.3,0.2,0.5,0.3
			c0.2,0.1,0.4,0.3,0.7,0.4c0.3,0.1,0.6,0.2,0.9,0.3c0.3,0.1,0.7,0.1,1.1,0.1c0.4,0,0.8-0.1,1.1-0.2c0.3-0.1,0.5-0.3,0.5-0.6
			c0-0.2-0.1-0.4-0.2-0.5c-0.1-0.1-0.4-0.2-0.8-0.3c-0.2-0.1-0.5-0.1-0.8-0.2c-0.3-0.1-0.6-0.1-0.9-0.2c-0.7-0.2-1.3-0.6-1.6-1
			c-0.4-0.4-0.5-1-0.5-1.7c0-0.4,0.1-0.8,0.3-1.2c0.2-0.4,0.5-0.7,0.8-1c0.4-0.3,0.8-0.5,1.4-0.7c0.5-0.2,1.1-0.2,1.8-0.2
			c0.6,0,1.2,0.1,1.8,0.2c0.5,0.1,1,0.3,1.4,0.5v2.3h-0.2c-0.1-0.1-0.3-0.2-0.5-0.3c-0.2-0.1-0.4-0.2-0.6-0.3
			c-0.2-0.1-0.5-0.2-0.8-0.3c-0.3-0.1-0.6-0.1-0.9-0.1c-0.4,0-0.8,0.1-1.1,0.2c-0.3,0.1-0.4,0.3-0.4,0.6c0,0.2,0.1,0.4,0.2,0.5
			c0.1,0.1,0.5,0.2,0.9,0.4c0.2,0.1,0.5,0.1,0.8,0.2c0.3,0.1,0.6,0.1,0.9,0.2c0.7,0.2,1.2,0.5,1.5,0.9c0.3,0.4,0.5,1,0.5,1.6
			c0,0.4-0.1,0.8-0.3,1.2c-0.2,0.4-0.5,0.7-0.9,1c-0.4,0.3-0.9,0.5-1.4,0.7C433.6,159.3,433,159.3,432.3,159.3z"/>
		<path class="st1" d="M452,154.3c0,1.5-0.4,2.7-1.1,3.6c-0.7,0.9-1.7,1.4-2.8,1.4c-0.5,0-0.9-0.1-1.2-0.2c-0.3-0.1-0.7-0.3-1.1-0.5
			v3.8H443v-12.6h2.9v1c0.4-0.4,0.8-0.7,1.3-0.9c0.4-0.2,0.9-0.3,1.5-0.3c1.1,0,1.9,0.4,2.5,1.3C451.7,151.7,452,152.9,452,154.3z
			 M449.1,154.4c0-0.9-0.1-1.5-0.4-2c-0.3-0.4-0.7-0.6-1.3-0.6c-0.3,0-0.5,0-0.8,0.1c-0.3,0.1-0.5,0.2-0.8,0.4v4.6
			c0.2,0.1,0.3,0.1,0.5,0.1c0.2,0,0.4,0,0.7,0c0.7,0,1.2-0.2,1.6-0.7C448.9,156,449.1,155.3,449.1,154.4z"/>
		<path class="st1" d="M462.4,154.5c0,1.5-0.4,2.7-1.2,3.6c-0.8,0.9-2,1.3-3.5,1.3c-1.5,0-2.7-0.4-3.5-1.3c-0.8-0.9-1.3-2.1-1.3-3.6
			c0-1.5,0.4-2.7,1.3-3.6c0.8-0.9,2-1.3,3.5-1.3c1.5,0,2.7,0.4,3.5,1.3C462,151.8,462.4,153,462.4,154.5z M459.5,154.5
			c0-0.5,0-1-0.1-1.4c-0.1-0.4-0.2-0.7-0.4-0.9c-0.2-0.2-0.4-0.4-0.6-0.5c-0.2-0.1-0.5-0.1-0.7-0.1c-0.3,0-0.5,0-0.7,0.1
			c-0.2,0.1-0.4,0.2-0.6,0.5c-0.2,0.2-0.3,0.5-0.4,0.9c-0.1,0.4-0.1,0.8-0.1,1.4c0,0.6,0,1,0.1,1.4c0.1,0.3,0.2,0.6,0.4,0.8
			c0.2,0.2,0.3,0.4,0.6,0.5c0.2,0.1,0.5,0.1,0.8,0.1c0.2,0,0.5,0,0.7-0.1c0.2-0.1,0.4-0.2,0.6-0.4c0.2-0.2,0.3-0.5,0.4-0.8
			C459.4,155.5,459.5,155.1,459.5,154.5z"/>
		<path class="st1" d="M467.5,159.3c-1.2,0-2-0.2-2.6-0.7c-0.5-0.5-0.8-1.3-0.8-2.4v-4.3H463v-2h1.1v-2.6h2.9v2.6h2.8v2H467v3.3
			c0,0.3,0,0.6,0,0.8c0,0.2,0,0.5,0.1,0.6c0.1,0.2,0.2,0.3,0.4,0.5c0.2,0.1,0.5,0.2,0.8,0.2c0.2,0,0.4,0,0.6-0.1
			c0.2-0.1,0.4-0.1,0.5-0.2h0.2v2c-0.3,0.1-0.6,0.1-1,0.2C468.4,159.2,468,159.3,467.5,159.3z"/>
		<path class="st1" d="M475.6,159.3c-1.7,0-3.1-0.4-4-1.2c-0.9-0.8-1.4-2-1.4-3.5c0-1.5,0.4-2.7,1.3-3.6c0.9-0.9,2.1-1.3,3.6-1.3
			c1.4,0,2.5,0.4,3.2,1.1c0.7,0.8,1.1,1.8,1.1,3.3v1h-6.3c0,0.4,0.1,0.8,0.3,1.1c0.2,0.3,0.4,0.5,0.6,0.7c0.2,0.2,0.5,0.3,0.9,0.4
			c0.3,0.1,0.7,0.1,1.1,0.1c0.3,0,0.7,0,1-0.1c0.3-0.1,0.6-0.2,0.9-0.3c0.2-0.1,0.5-0.2,0.7-0.3c0.2-0.1,0.4-0.2,0.5-0.3h0.3v2.4
			c-0.2,0.1-0.4,0.2-0.6,0.3c-0.2,0.1-0.5,0.2-0.8,0.2c-0.3,0.1-0.6,0.1-1,0.2C476.5,159.3,476.1,159.3,475.6,159.3z M476.6,153.3
			c0-0.6-0.2-1.1-0.4-1.4c-0.3-0.3-0.7-0.5-1.2-0.5c-0.6,0-1,0.2-1.3,0.5c-0.3,0.3-0.5,0.8-0.5,1.4H476.6z"/>
		<path class="st1" d="M489.5,159.1h-2.9v-4.6c0-0.4,0-0.7,0-1.1c0-0.4-0.1-0.6-0.2-0.8c-0.1-0.2-0.2-0.4-0.4-0.4
			c-0.2-0.1-0.4-0.1-0.7-0.1c-0.2,0-0.5,0-0.7,0.1c-0.2,0.1-0.5,0.2-0.8,0.4v6.5h-2.9v-9.2h2.9v1c0.5-0.4,0.9-0.7,1.4-0.9
			c0.4-0.2,0.9-0.3,1.5-0.3c0.9,0,1.7,0.3,2.2,0.9c0.5,0.6,0.7,1.5,0.7,2.6V159.1z"/>
		<path class="st1" d="M495.2,159.3c-1.2,0-2-0.2-2.6-0.7c-0.5-0.5-0.8-1.3-0.8-2.4v-4.3h-1.1v-2h1.1v-2.6h2.9v2.6h2.8v2h-2.8v3.3
			c0,0.3,0,0.6,0,0.8c0,0.2,0,0.5,0.1,0.6c0.1,0.2,0.2,0.3,0.4,0.5c0.2,0.1,0.5,0.2,0.8,0.2c0.2,0,0.4,0,0.6-0.1
			c0.2-0.1,0.4-0.1,0.5-0.2h0.2v2c-0.3,0.1-0.6,0.1-1,0.2C496.1,159.2,495.7,159.3,495.2,159.3z"/>
		<path class="st1" d="M501.6,148.6h-3v-2.2h3V148.6z M501.5,159.1h-2.9v-9.2h2.9V159.1z"/>
		<path class="st1" d="M508.7,158.1c-0.2,0.2-0.4,0.3-0.5,0.4c-0.2,0.1-0.4,0.3-0.6,0.4c-0.3,0.1-0.5,0.2-0.8,0.3
			c-0.2,0.1-0.6,0.1-1,0.1c-0.8,0-1.5-0.3-2-0.8c-0.5-0.5-0.8-1.2-0.8-2.1c0-0.7,0.1-1.2,0.4-1.7c0.3-0.4,0.7-0.8,1.2-1
			c0.5-0.3,1.1-0.4,1.9-0.5c0.7-0.1,1.5-0.2,2.3-0.2v0c0-0.5-0.2-0.9-0.6-1.1c-0.4-0.2-0.9-0.3-1.7-0.3c-0.3,0-0.7,0.1-1.2,0.2
			c-0.5,0.1-0.9,0.3-1.3,0.5h-0.2v-2.2c0.3-0.1,0.7-0.2,1.4-0.3c0.6-0.1,1.3-0.2,1.9-0.2c1.6,0,2.7,0.3,3.5,0.8
			c0.7,0.5,1.1,1.3,1.1,2.4v6.3h-2.9V158.1z M508.7,156.7v-1.9c-0.5,0-0.9,0.1-1.2,0.1c-0.3,0-0.6,0.1-0.9,0.2
			c-0.3,0.1-0.4,0.2-0.6,0.4c-0.1,0.2-0.2,0.4-0.2,0.7c0,0.4,0.1,0.7,0.3,0.9c0.2,0.2,0.6,0.2,1,0.2c0.3,0,0.5-0.1,0.8-0.2
			C508.3,157,508.5,156.9,508.7,156.7z"/>
		<path class="st1" d="M516.6,159.1h-2.9v-12.8h2.9V159.1z"/>
	</g>
</g>
</svg>
